<svg width="24" height="24" viewBox="0 0 24 24" fill="none" xmlns="http://www.w3.org/2000/svg">
  <rect x="1" y="1" width="22" height="22" rx="4" stroke="#9BA4C0" stroke-width="2"/>
  <path d="M7.2 10H10.1V18H7.2V10Z" fill="#F5F7FF"/>
  <path d="M8.65 6.5C9.55 6.5 10.2 7.15 10.2 8.05C10.2 8.95 9.55 9.6 8.65 9.6C7.75 9.6 7.1 8.95 7.1 8.05C7.1 7.15 7.75 6.5 8.65 6.5Z" fill="#F5F7FF"/>
  <path d="M11.9 10H14.7V11.1H14.74C15.13 10.35 16.08 9.57 17.49 9.57C20.41 9.57 20.95 11.49 20.95 13.97V18H18.05V14.43C18.05 13.58 18.03 12.49 16.86 12.49C15.68 12.49 15.5 13.41 15.5 14.37V18H12.6V10H11.9Z" fill="#F5F7FF"/>
</svg>
