<svg width="720" height="900" viewBox="0 0 720 900" fill="none" xmlns="http://www.w3.org/2000/svg">
  <defs>
    <linearGradient id="bg" x1="60" y1="40" x2="660" y2="860" gradientUnits="userSpaceOnUse">
      <stop stop-color="#19253F"/>
      <stop offset="1" stop-color="#0B1020"/>
    </linearGradient>
    <linearGradient id="hair" x1="140" y1="180" x2="560" y2="560" gradientUnits="userSpaceOnUse">
      <stop stop-color="#272A48"/>
      <stop offset="1" stop-color="#111425"/>
    </linearGradient>
    <linearGradient id="skin" x1="260" y1="240" x2="460" y2="520" gradientUnits="userSpaceOnUse">
      <stop stop-color="#F2C6A4"/>
      <stop offset="1" stop-color="#DFA783"/>
    </linearGradient>
    <linearGradient id="coat" x1="170" y1="520" x2="560" y2="860" gradientUnits="userSpaceOnUse">
      <stop stop-color="#7C5CFF"/>
      <stop offset="1" stop-color="#2AD3E8"/>
    </linearGradient>
  </defs>

  <rect x="0" y="0" width="720" height="900" rx="36" fill="url(#bg)"/>
  <circle cx="520" cy="170" r="120" fill="#8B5CF6" fill-opacity="0.25"/>
  <circle cx="140" cy="720" r="150" fill="#22D3EE" fill-opacity="0.2"/>

  <path d="M152 406C152 284 240 184 360 184C480 184 568 284 568 406V492H152V406Z" fill="url(#hair)"/>
  <path d="M200 408C200 308 270 240 360 240C450 240 520 308 520 408V488H200V408Z" fill="url(#skin)"/>

  <ellipse cx="310" cy="380" rx="14" ry="10" fill="#2C2430"/>
  <ellipse cx="410" cy="380" rx="14" ry="10" fill="#2C2430"/>
  <path d="M332 444C346 458 374 458 388 444" stroke="#9D5E52" stroke-width="8" stroke-linecap="round"/>

  <path d="M148 874C168 676 250 566 360 566C470 566 552 676 572 874H148Z" fill="url(#coat)"/>
  <path d="M250 874C260 740 306 646 360 646C414 646 460 740 470 874H250Z" fill="#F7F9FF" fill-opacity="0.92"/>

  <rect x="60" y="60" width="600" height="780" rx="30" stroke="#9BA4C0" stroke-opacity="0.35" stroke-width="2"/>
</svg>
